<svg id="Layer_1" data-name="Layer 1" xmlns="http://www.w3.org/2000/svg" viewBox="0 0 402.91 84.67"><defs><style>.cls-1,.cls-3{fill:#fff;}.cls-1{opacity:0.75;}.cls-2{fill:#fff021;}.cls-3{opacity:0.76;}</style></defs><path class="cls-1" d="M48.55,264.32l15.81-1.54q1.42,8,5.79,11.7t11.78,3.73q7.86,0,11.84-3.32a9.91,9.91,0,0,0,4-7.77,7.29,7.29,0,0,0-1.68-4.86q-1.66-2-5.85-3.49-2.85-1-13-3.51-13.06-3.24-18.34-8a21,21,0,0,1-7.41-16.19,20.72,20.72,0,0,1,3.48-11.51,21.83,21.83,0,0,1,10-8.15,40.25,40.25,0,0,1,15.84-2.8q15.17,0,22.82,6.64t8,17.74l-16.25.71c-.69-4.14-2.19-7.11-4.47-8.92s-5.72-2.72-10.3-2.72-8.42,1-11.09,2.91A5.86,5.86,0,0,0,67,230a6.16,6.16,0,0,0,2.41,4.88q3.07,2.58,14.94,5.39t17.54,5.79a22.56,22.56,0,0,1,8.9,8.18A23.93,23.93,0,0,1,114,267.06a23.69,23.69,0,0,1-3.84,13,23.06,23.06,0,0,1-10.88,9q-7,2.94-17.51,2.94-15.27,0-23.45-7.06T48.55,264.32Z" transform="translate(-48.55 -207.66)"/><path class="cls-1" d="M133.57,290.51V223.63H109.68V210h64v13.62H149.82v66.88Z" transform="translate(-48.55 -207.66)"/><path class="cls-1" d="M173.66,290.51V210h34.21q12.9,0,18.75,2.17a18.47,18.47,0,0,1,9.36,7.71,23.24,23.24,0,0,1,3.52,12.69q0,9.06-5.33,15T218.24,255a37.7,37.7,0,0,1,8.71,6.76q3.44,3.67,9.25,13.07l9.83,15.7H226.59L214.84,273q-6.26-9.39-8.57-11.83a12.35,12.35,0,0,0-4.88-3.35,26.92,26.92,0,0,0-8.19-.91h-3.29v33.61Zm16.25-46.46h12q11.69,0,14.6-1a8.79,8.79,0,0,0,4.56-3.41,10.46,10.46,0,0,0,1.65-6,9.67,9.67,0,0,0-2.17-6.56,10,10,0,0,0-6.12-3.16q-2-.27-11.87-.27H189.91Z" transform="translate(-48.55 -207.66)"/><path class="cls-2" d="M274.8,292.34,246,211.84h17.63L284,271.42l19.71-59.58H321l-28.83,80.5Z" transform="translate(-48.55 -207.66)"/><path class="cls-3" d="M375.35,259.94l15.76,5q-3.63,13.17-12.05,19.57t-21.39,6.4q-16,0-26.36-11T321,250q0-20.1,10.37-31.22t27.3-11.12q14.76,0,24,8.73,5.49,5.18,8.24,14.83l-16.09,3.84a16.63,16.63,0,0,0-17-13.5A18.3,18.3,0,0,0,343.31,228q-5.58,6.42-5.58,20.81,0,15.27,5.5,21.75A17.83,17.83,0,0,0,357.5,277a16.31,16.31,0,0,0,11.15-4.12Q373.32,268.77,375.35,259.94Z" transform="translate(-48.55 -207.66)"/><path class="cls-3" d="M411.37,289.54V222.65H387.48V209h64v13.61H427.62v66.89Z" transform="translate(-48.55 -207.66)"/></svg>