<?xml version="1.0" encoding="utf-8"?>
<!-- Generator: Adobe Illustrator 24.1.3, SVG Export Plug-In . SVG Version: 6.00 Build 0)  -->
<svg version="1.1" id="Layer_1" xmlns="http://www.w3.org/2000/svg" xmlns:xlink="http://www.w3.org/1999/xlink" x="0px" y="0px"
	 viewBox="0 0 55.9 55.9" style="enable-background:new 0 0 55.9 55.9;" xml:space="preserve">
<desc>Created with Sketch.</desc>
<g>
	<g>
		<g>
			<path d="M30,26h7c1.1,0,2,0.9,2,2c0,1.1-0.9,2-2,2h-7v7c0,1.1-0.9,2-2,2c-1.1,0-2-0.9-2-2v-7h-7c-1.1,0-2-0.9-2-2
				c0-1.1,0.9-2,2-2h7v-7c0-1.1,0.9-2,2-2c1.1,0,2,0.9,2,2V26z M28,52C14.7,52,4,41.2,4,28S14.7,4,28,4s24,10.7,24,24S41.2,52,28,52
				z M28,48c11,0,20-9,20-20S39,8,28,8s-20,9-20,20S16.9,48,28,48z"/>
		</g>
	</g>
</g>
</svg>
